<svg width="22" height="22" viewBox="0 0 22 22" fill="none" xmlns="http://www.w3.org/2000/svg">
<path d="M9.95358 3.21972C10.2836 2.20662 11.7169 2.20662 12.0458 3.21972L13.2228 6.84092C13.2947 7.06146 13.4345 7.25362 13.6222 7.38994C13.8098 7.52626 14.0358 7.59975 14.2678 7.59993H18.076C19.1419 7.59993 19.5841 8.96392 18.7228 9.59092L15.6428 11.8283C15.4547 11.9648 15.3147 12.1572 15.2427 12.3782C15.1708 12.5991 15.1707 12.8371 15.2424 13.0581L16.4194 16.6793C16.7494 17.6924 15.5889 18.5361 14.7254 17.9091L11.6454 15.6717C11.4575 15.5353 11.2313 15.4619 10.9991 15.4619C10.767 15.4619 10.5408 15.5353 10.3529 15.6717L7.27288 17.9091C6.41048 18.5361 5.25108 17.6924 5.57998 16.6793L6.75698 13.0581C6.82867 12.8371 6.82854 12.5991 6.75661 12.3782C6.68468 12.1572 6.54464 11.9648 6.35658 11.8283L3.27768 9.59203C2.41638 8.96503 2.85968 7.60102 3.92448 7.60102H7.73158C7.96373 7.60109 8.18995 7.5277 8.37785 7.39136C8.56576 7.25503 8.70571 7.06274 8.77768 6.84202L9.95468 3.22082L9.95358 3.21972Z" fill="#F0CC84"/>
</svg>
