<svg width="24" height="24" viewBox="0 0 24 24" fill="none" xmlns="http://www.w3.org/2000/svg">
<path fill-rule="evenodd" clip-rule="evenodd" d="M2.06336 12C2.65768 10.8958 3.79576 9.33029 5.40445 8.0117C7.12095 6.60473 9.34594 5.5 12 5.5C14.654 5.5 16.879 6.60473 18.5955 8.0117C20.2042 9.33029 21.3423 10.8958 21.9366 12C21.3423 13.1042 20.2042 14.6697 18.5955 15.9883C16.879 17.3953 14.654 18.5 12 18.5C9.34594 18.5 7.12095 17.3953 5.40445 15.9883C3.79576 14.6697 2.65768 13.1042 2.06336 12ZM1.04153 12.1996C1.04585 12.2095 1.0505 12.2193 1.05547 12.229C1.66882 13.4536 2.93553 15.2576 4.77052 16.7617C6.61236 18.2714 9.05403 19.5 12 19.5C14.9459 19.5 17.3876 18.2714 19.2295 16.7617C21.0645 15.2576 22.3312 13.4535 22.9445 12.2289C22.9496 12.2191 22.9544 12.209 22.9588 12.1988C22.9868 12.1343 23.0001 12.0667 23.0001 12C23.0001 11.9333 22.9868 11.8657 22.9588 11.8012C22.9544 11.791 22.9496 11.7809 22.9445 11.7711C22.3312 10.5465 21.0645 8.74242 19.2295 7.2383C17.3876 5.7286 14.9459 4.5 12 4.5C9.05403 4.5 6.61236 5.7286 4.77052 7.2383C2.93553 8.74239 1.66882 10.5464 1.05547 11.771C1.0505 11.7807 1.04585 11.7905 1.04153 11.8004C1.01327 11.8652 0.999826 11.9331 0.999878 12C0.999826 12.0669 1.01327 12.1348 1.04153 12.1996Z" fill="#121212"/>
<circle cx="12" cy="12" r="3.5" stroke="#121212"/>
</svg>
